<svg xmlns="http://www.w3.org/2000/svg" xmlns:xlink="http://www.w3.org/1999/xlink" width="600" zoomAndPan="magnify" viewBox="0 0 450 104.999996" height="140" preserveAspectRatio="xMidYMid meet" version="1.0"><defs><g/><clipPath id="221264e4fd"><path d="M 214 0.898438 L 270 0.898438 L 270 57 L 214 57 Z M 214 0.898438 " clip-rule="nonzero"/></clipPath><clipPath id="dfe7ead330"><path d="M 206.105469 32 L 277.355469 32 L 277.355469 104.398438 L 206.105469 104.398438 Z M 206.105469 32 " clip-rule="nonzero"/></clipPath></defs><g clip-path="url(#221264e4fd)"><path fill="#000000" d="M 241.800781 56.261719 C 240.0625 56.261719 238.652344 54.851562 238.652344 53.113281 C 238.652344 51.375 240.0625 49.964844 241.800781 49.964844 C 253.589844 49.964844 263.175781 40.375 263.175781 28.589844 C 263.175781 16.804688 253.585938 7.214844 241.800781 7.214844 C 230.015625 7.214844 220.425781 16.804688 220.425781 28.589844 C 220.425781 30.328125 219.015625 31.738281 217.277344 31.738281 C 215.539062 31.738281 214.128906 30.328125 214.128906 28.589844 C 214.128906 13.332031 226.542969 0.917969 241.800781 0.917969 C 257.0625 0.917969 269.476562 13.332031 269.476562 28.589844 C 269.476562 43.847656 257.058594 56.261719 241.800781 56.261719 Z M 241.800781 56.261719 " fill-opacity="1" fill-rule="nonzero"/></g><g clip-path="url(#dfe7ead330)"><path fill="#fbca6f" d="M 277.484375 68.5625 C 277.484375 69.734375 277.429688 70.898438 277.3125 72.0625 C 277.199219 73.222656 277.027344 74.378906 276.800781 75.527344 C 276.570312 76.671875 276.289062 77.804688 275.949219 78.921875 C 275.609375 80.039062 275.214844 81.140625 274.769531 82.21875 C 274.320312 83.300781 273.824219 84.355469 273.273438 85.386719 C 272.722656 86.414062 272.121094 87.417969 271.472656 88.390625 C 270.824219 89.359375 270.128906 90.296875 269.386719 91.203125 C 268.644531 92.105469 267.859375 92.96875 267.035156 93.796875 C 266.207031 94.621094 265.34375 95.40625 264.4375 96.148438 C 263.535156 96.890625 262.597656 97.585938 261.625 98.234375 C 260.65625 98.882812 259.652344 99.484375 258.621094 100.035156 C 257.59375 100.585938 256.535156 101.085938 255.457031 101.53125 C 254.378906 101.980469 253.277344 102.371094 252.160156 102.710938 C 251.042969 103.050781 249.910156 103.335938 248.761719 103.5625 C 247.617188 103.789062 246.460938 103.960938 245.300781 104.078125 C 244.136719 104.191406 242.96875 104.25 241.800781 104.25 C 240.632812 104.25 239.464844 104.191406 238.304688 104.078125 C 237.140625 103.960938 235.984375 103.789062 234.839844 103.5625 C 233.691406 103.335938 232.5625 103.050781 231.441406 102.710938 C 230.324219 102.371094 229.226562 101.980469 228.144531 101.53125 C 227.066406 101.085938 226.011719 100.585938 224.980469 100.035156 C 223.949219 99.484375 222.949219 98.882812 221.976562 98.234375 C 221.003906 97.585938 220.066406 96.890625 219.164062 96.148438 C 218.261719 95.40625 217.394531 94.621094 216.570312 93.796875 C 215.742188 92.96875 214.957031 92.105469 214.21875 91.203125 C 213.476562 90.296875 212.78125 89.359375 212.128906 88.390625 C 211.480469 87.417969 210.882812 86.414062 210.332031 85.386719 C 209.78125 84.355469 209.28125 83.300781 208.832031 82.21875 C 208.386719 81.140625 207.992188 80.039062 207.652344 78.921875 C 207.3125 77.804688 207.03125 76.671875 206.800781 75.527344 C 206.574219 74.378906 206.402344 73.222656 206.289062 72.0625 C 206.175781 70.898438 206.117188 69.734375 206.117188 68.5625 C 206.117188 67.394531 206.175781 66.230469 206.289062 65.066406 C 206.402344 63.902344 206.574219 62.75 206.800781 61.601562 C 207.03125 60.457031 207.3125 59.324219 207.652344 58.207031 C 207.992188 57.085938 208.386719 55.988281 208.832031 54.90625 C 209.28125 53.828125 209.78125 52.773438 210.332031 51.742188 C 210.882812 50.710938 211.480469 49.710938 212.128906 48.738281 C 212.78125 47.765625 213.476562 46.828125 214.21875 45.925781 C 214.957031 45.023438 215.742188 44.15625 216.570312 43.332031 C 217.394531 42.503906 218.261719 41.722656 219.164062 40.980469 C 220.066406 40.238281 221.003906 39.542969 221.976562 38.894531 C 222.949219 38.242188 223.949219 37.644531 224.980469 37.09375 C 226.011719 36.542969 227.066406 36.042969 228.144531 35.597656 C 229.226562 35.148438 230.324219 34.753906 231.441406 34.417969 C 232.5625 34.078125 233.691406 33.792969 234.839844 33.566406 C 235.984375 33.335938 237.140625 33.164062 238.304688 33.050781 C 239.464844 32.9375 240.632812 32.878906 241.800781 32.878906 C 242.96875 32.878906 244.136719 32.9375 245.300781 33.050781 C 246.460938 33.164062 247.617188 33.335938 248.761719 33.566406 C 249.910156 33.792969 251.042969 34.078125 252.160156 34.417969 C 253.277344 34.753906 254.378906 35.148438 255.457031 35.597656 C 256.535156 36.042969 257.59375 36.542969 258.621094 37.09375 C 259.652344 37.644531 260.65625 38.242188 261.625 38.894531 C 262.597656 39.542969 263.535156 40.238281 264.4375 40.980469 C 265.34375 41.722656 266.207031 42.503906 267.035156 43.332031 C 267.859375 44.15625 268.644531 45.023438 269.386719 45.925781 C 270.128906 46.828125 270.824219 47.765625 271.472656 48.738281 C 272.121094 49.710938 272.722656 50.710938 273.273438 51.742188 C 273.824219 52.773438 274.320312 53.828125 274.769531 54.90625 C 275.214844 55.988281 275.609375 57.085938 275.949219 58.207031 C 276.289062 59.324219 276.570312 60.457031 276.800781 61.601562 C 277.027344 62.75 277.199219 63.902344 277.3125 65.066406 C 277.429688 66.230469 277.484375 67.394531 277.484375 68.5625 Z M 277.484375 68.5625 " fill-opacity="1" fill-rule="nonzero"/></g><path fill="#f8b858" d="M 268.5625 68.5625 C 268.5625 69.441406 268.519531 70.316406 268.433594 71.1875 C 268.347656 72.058594 268.222656 72.925781 268.050781 73.785156 C 267.878906 74.644531 267.667969 75.496094 267.410156 76.332031 C 267.15625 77.171875 266.863281 77.996094 266.527344 78.804688 C 266.191406 79.617188 265.816406 80.40625 265.402344 81.179688 C 264.992188 81.953125 264.539062 82.703125 264.054688 83.433594 C 263.566406 84.160156 263.046875 84.863281 262.488281 85.542969 C 261.933594 86.21875 261.34375 86.867188 260.726562 87.488281 C 260.105469 88.109375 259.457031 88.695312 258.78125 89.253906 C 258.101562 89.808594 257.398438 90.328125 256.671875 90.816406 C 255.941406 91.304688 255.191406 91.753906 254.417969 92.167969 C 253.644531 92.578125 252.851562 92.953125 252.042969 93.289062 C 251.234375 93.625 250.410156 93.921875 249.570312 94.175781 C 248.730469 94.429688 247.882812 94.640625 247.023438 94.8125 C 246.164062 94.984375 245.296875 95.113281 244.425781 95.199219 C 243.550781 95.285156 242.679688 95.328125 241.800781 95.328125 C 240.925781 95.328125 240.050781 95.285156 239.179688 95.199219 C 238.304688 95.113281 237.441406 94.984375 236.582031 94.8125 C 235.722656 94.640625 234.871094 94.429688 234.03125 94.175781 C 233.195312 93.921875 232.371094 93.625 231.558594 93.289062 C 230.75 92.953125 229.957031 92.578125 229.1875 92.167969 C 228.414062 91.753906 227.660156 91.304688 226.933594 90.816406 C 226.203125 90.328125 225.5 89.808594 224.824219 89.253906 C 224.144531 88.695312 223.496094 88.109375 222.878906 87.488281 C 222.257812 86.867188 221.667969 86.21875 221.113281 85.542969 C 220.558594 84.863281 220.035156 84.160156 219.550781 83.433594 C 219.0625 82.703125 218.613281 81.953125 218.199219 81.179688 C 217.785156 80.40625 217.410156 79.617188 217.078125 78.804688 C 216.742188 77.996094 216.445312 77.171875 216.191406 76.332031 C 215.9375 75.496094 215.722656 74.644531 215.554688 73.785156 C 215.382812 72.925781 215.253906 72.058594 215.167969 71.1875 C 215.082031 70.316406 215.039062 69.441406 215.039062 68.5625 C 215.039062 67.6875 215.082031 66.8125 215.167969 65.941406 C 215.253906 65.070312 215.382812 64.203125 215.554688 63.34375 C 215.722656 62.484375 215.9375 61.632812 216.191406 60.796875 C 216.445312 59.957031 216.742188 59.132812 217.078125 58.324219 C 217.410156 57.511719 217.785156 56.722656 218.199219 55.949219 C 218.613281 55.175781 219.0625 54.425781 219.550781 53.695312 C 220.035156 52.96875 220.558594 52.265625 221.113281 51.585938 C 221.667969 50.910156 222.257812 50.261719 222.878906 49.640625 C 223.496094 49.019531 224.144531 48.433594 224.824219 47.875 C 225.5 47.320312 226.203125 46.796875 226.933594 46.3125 C 227.660156 45.824219 228.414062 45.375 229.1875 44.960938 C 229.957031 44.546875 230.75 44.175781 231.558594 43.839844 C 232.371094 43.503906 233.195312 43.207031 234.03125 42.953125 C 234.871094 42.699219 235.722656 42.488281 236.582031 42.316406 C 237.441406 42.144531 238.304688 42.015625 239.179688 41.929688 C 240.050781 41.84375 240.925781 41.800781 241.800781 41.800781 C 242.679688 41.800781 243.550781 41.84375 244.425781 41.929688 C 245.296875 42.015625 246.164062 42.144531 247.023438 42.316406 C 247.882812 42.488281 248.730469 42.699219 249.570312 42.953125 C 250.410156 43.207031 251.234375 43.503906 252.042969 43.839844 C 252.851562 44.175781 253.644531 44.546875 254.417969 44.960938 C 255.191406 45.375 255.941406 45.824219 256.671875 46.3125 C 257.398438 46.800781 258.101562 47.320312 258.78125 47.875 C 259.457031 48.433594 260.105469 49.019531 260.726562 49.640625 C 261.34375 50.261719 261.933594 50.910156 262.488281 51.585938 C 263.046875 52.265625 263.566406 52.96875 264.054688 53.695312 C 264.539062 54.425781 264.992188 55.175781 265.402344 55.949219 C 265.816406 56.722656 266.191406 57.511719 266.527344 58.324219 C 266.863281 59.132812 267.15625 59.957031 267.410156 60.796875 C 267.667969 61.632812 267.878906 62.484375 268.050781 63.34375 C 268.222656 64.203125 268.347656 65.070312 268.433594 65.941406 C 268.519531 66.8125 268.5625 67.6875 268.5625 68.5625 Z M 268.5625 68.5625 " fill-opacity="1" fill-rule="nonzero"/><path fill="#ffffff" d="M 249.335938 63.15625 C 249.335938 58.996094 245.964844 55.621094 241.800781 55.621094 C 237.640625 55.621094 234.265625 58.996094 234.265625 63.15625 C 234.265625 66.210938 236.085938 68.832031 238.695312 70.015625 C 238.59375 70.335938 238.527344 70.667969 238.527344 71.023438 L 238.527344 78.066406 C 238.527344 79.964844 240.066406 81.503906 241.964844 81.503906 C 243.867188 81.503906 245.40625 79.964844 245.40625 78.066406 L 245.40625 71.023438 C 245.40625 70.617188 245.324219 70.238281 245.195312 69.878906 C 247.652344 68.636719 249.335938 66.097656 249.335938 63.15625 Z M 249.335938 63.15625 " fill-opacity="1" fill-rule="nonzero"/><g fill="#000000" fill-opacity="1"><g transform="translate(284.871401, 87.302647)"><g><path d="M 42.78125 -12.734375 C 41.226562 -8.734375 38.695312 -5.53125 35.1875 -3.125 C 31.632812 -0.632812 27.738281 0.609375 23.5 0.609375 C 17.75 0.609375 12.832031 -1.507812 8.75 -5.75 C 4.75 -9.914062 2.75 -14.914062 2.75 -20.75 C 2.75 -23.644531 3.28125 -26.398438 4.34375 -29.015625 C 5.40625 -31.578125 6.875 -33.835938 8.75 -35.796875 C 12.832031 -40.046875 17.75 -42.171875 23.5 -42.171875 C 27.738281 -42.171875 31.613281 -40.96875 35.125 -38.5625 C 38.632812 -36.113281 41.164062 -32.910156 42.71875 -28.953125 L 38 -28.953125 C 35.757812 -33.066406 32.414062 -35.800781 27.96875 -37.15625 C 26.5 -37.5625 24.804688 -37.765625 22.890625 -37.765625 C 20.972656 -37.765625 19.015625 -37.316406 17.015625 -36.421875 C 15.015625 -35.484375 13.28125 -34.238281 11.8125 -32.6875 C 8.625 -29.375 7.03125 -25.394531 7.03125 -20.75 C 7.03125 -16.132812 8.625 -12.175781 11.8125 -8.875 C 15.03125 -5.488281 18.925781 -3.796875 23.5 -3.796875 C 26.601562 -3.796875 29.460938 -4.613281 32.078125 -6.25 C 34.640625 -7.875 36.632812 -10.035156 38.0625 -12.734375 Z M 42.78125 -12.734375 "/></g></g></g><g fill="#000000" fill-opacity="1"><g transform="translate(334.373363, 87.302647)"><g><path d="M 8.875 0 L 4.59375 0 L 4.59375 -41.625 L 8.875 -41.625 L 8.875 -22.09375 L 22.890625 -41.625 L 28.390625 -41.625 L 13.09375 -20.8125 L 28.390625 0 L 22.890625 0 L 8.875 -19.53125 Z M 8.875 0 "/></g></g></g><g fill="#000000" fill-opacity="1"><g transform="translate(368.273088, 87.302647)"><g><path d="M 29.3125 0 L 4.59375 0 L 4.59375 -41.625 L 29.3125 -41.625 L 29.3125 -37.640625 L 8.875 -37.640625 L 8.875 -22.828125 L 28.703125 -22.828125 L 28.703125 -18.796875 L 8.875 -18.796875 L 8.875 -3.984375 L 29.3125 -3.984375 Z M 29.3125 0 "/></g></g></g><g fill="#000000" fill-opacity="1"><g transform="translate(407.067642, 87.302647)"><g><path d="M 36.90625 -20.8125 C 36.90625 -17.789062 36.351562 -15.015625 35.25 -12.484375 C 34.113281 -9.910156 32.582031 -7.707031 30.65625 -5.875 C 28.738281 -4.039062 26.476562 -2.613281 23.875 -1.59375 C 21.257812 -0.53125 18.460938 0 15.484375 0 L 4.59375 0 L 4.59375 -41.625 L 15.484375 -41.625 C 18.460938 -41.625 21.257812 -41.113281 23.875 -40.09375 C 26.476562 -39.03125 28.738281 -37.582031 30.65625 -35.75 C 32.582031 -33.90625 34.113281 -31.71875 35.25 -29.1875 C 36.351562 -26.625 36.90625 -23.832031 36.90625 -20.8125 Z M 32.75 -20.8125 C 32.75 -25.539062 31.070312 -29.5 27.71875 -32.6875 C 24.457031 -35.78125 20.421875 -37.328125 15.609375 -37.328125 L 8.875 -37.328125 L 8.875 -4.28125 L 15.609375 -4.28125 C 20.421875 -4.28125 24.457031 -5.832031 27.71875 -8.9375 C 31.070312 -12.113281 32.75 -16.070312 32.75 -20.8125 Z M 32.75 -20.8125 "/></g></g></g><g fill="#000000" fill-opacity="1"><g transform="translate(3.185599, 87.302647)"><g><path d="M 36.90625 -20.8125 C 36.90625 -17.789062 36.351562 -15.015625 35.25 -12.484375 C 34.113281 -9.910156 32.582031 -7.707031 30.65625 -5.875 C 28.738281 -4.039062 26.476562 -2.613281 23.875 -1.59375 C 21.257812 -0.53125 18.460938 0 15.484375 0 L 4.59375 0 L 4.59375 -41.625 L 15.484375 -41.625 C 18.460938 -41.625 21.257812 -41.113281 23.875 -40.09375 C 26.476562 -39.03125 28.738281 -37.582031 30.65625 -35.75 C 32.582031 -33.90625 34.113281 -31.71875 35.25 -29.1875 C 36.351562 -26.625 36.90625 -23.832031 36.90625 -20.8125 Z M 32.75 -20.8125 C 32.75 -25.539062 31.070312 -29.5 27.71875 -32.6875 C 24.457031 -35.78125 20.421875 -37.328125 15.609375 -37.328125 L 8.875 -37.328125 L 8.875 -4.28125 L 15.609375 -4.28125 C 20.421875 -4.28125 24.457031 -5.832031 27.71875 -8.9375 C 31.070312 -12.113281 32.75 -16.070312 32.75 -20.8125 Z M 32.75 -20.8125 "/></g></g></g><g fill="#000000" fill-opacity="1"><g transform="translate(47.73152, 87.302647)"><g><path d="M 29.3125 0 L 4.59375 0 L 4.59375 -41.625 L 29.3125 -41.625 L 29.3125 -37.640625 L 8.875 -37.640625 L 8.875 -22.828125 L 28.703125 -22.828125 L 28.703125 -18.796875 L 8.875 -18.796875 L 8.875 -3.984375 L 29.3125 -3.984375 Z M 29.3125 0 "/></g></g></g><g fill="#000000" fill-opacity="1"><g transform="translate(86.526073, 87.302647)"><g><path d="M 11.328125 -15.296875 L 26.4375 -15.296875 L 18.90625 -34.453125 Z M 37.15625 0 L 32.5 0 L 28.03125 -11.328125 L 9.734375 -11.328125 L 5.265625 0 L 0.609375 0 L 18.90625 -44.5 Z M 37.15625 0 "/></g></g></g><g fill="#000000" fill-opacity="1"><g transform="translate(129.175276, 87.302647)"><g><path d="M 36.90625 -20.8125 C 36.90625 -17.789062 36.351562 -15.015625 35.25 -12.484375 C 34.113281 -9.910156 32.582031 -7.707031 30.65625 -5.875 C 28.738281 -4.039062 26.476562 -2.613281 23.875 -1.59375 C 21.257812 -0.53125 18.460938 0 15.484375 0 L 4.59375 0 L 4.59375 -41.625 L 15.484375 -41.625 C 18.460938 -41.625 21.257812 -41.113281 23.875 -40.09375 C 26.476562 -39.03125 28.738281 -37.582031 30.65625 -35.75 C 32.582031 -33.90625 34.113281 -31.71875 35.25 -29.1875 C 36.351562 -26.625 36.90625 -23.832031 36.90625 -20.8125 Z M 32.75 -20.8125 C 32.75 -25.539062 31.070312 -29.5 27.71875 -32.6875 C 24.457031 -35.78125 20.421875 -37.328125 15.609375 -37.328125 L 8.875 -37.328125 L 8.875 -4.28125 L 15.609375 -4.28125 C 20.421875 -4.28125 24.457031 -5.832031 27.71875 -8.9375 C 31.070312 -12.113281 32.75 -16.070312 32.75 -20.8125 Z M 32.75 -20.8125 "/></g></g></g><g fill="#000000" fill-opacity="1"><g transform="translate(173.721196, 87.302647)"><g><path d="M 8.875 -4.28125 L 23.75 -4.28125 L 23.75 0 L 4.59375 0 L 4.59375 -41.625 L 8.875 -41.625 Z M 8.875 -4.28125 "/></g></g></g></svg>