<svg xmlns="http://www.w3.org/2000/svg" xmlns:xlink="http://www.w3.org/1999/xlink" width="600" zoomAndPan="magnify" viewBox="0 0 450 104.999996" height="140" preserveAspectRatio="xMidYMid meet" version="1.0"><defs><g/><clipPath id="e652bb0683"><path d="M 214.257812 1.5 L 269 1.5 L 269 56 L 214.257812 56 Z M 214.257812 1.5 " clip-rule="nonzero"/></clipPath><clipPath id="3852d2d67c"><path d="M 213.507812 28.632812 C 213.507812 36.027344 216.445312 43.121094 221.671875 48.351562 C 226.902344 53.578125 233.996094 56.519531 241.390625 56.519531 C 248.785156 56.519531 255.878906 53.578125 261.105469 48.351562 C 266.335938 43.121094 269.273438 36.027344 269.273438 28.632812 C 269.273438 21.238281 266.335938 14.144531 261.105469 8.917969 C 255.878906 3.6875 248.785156 0.75 241.390625 0.75 C 233.996094 0.75 226.902344 3.6875 221.671875 8.917969 C 216.445312 14.144531 213.507812 21.238281 213.507812 28.632812 Z M 213.507812 28.632812 " clip-rule="nonzero"/></clipPath><clipPath id="de2c696b97"><path d="M 241.390625 1.648438 C 248.546875 1.648438 255.410156 4.492188 260.472656 9.554688 C 265.53125 14.613281 268.375 21.476562 268.375 28.632812 C 268.375 35.789062 265.53125 42.652344 260.472656 47.714844 C 255.410156 52.773438 248.546875 55.617188 241.390625 55.617188 C 234.234375 55.617188 227.371094 52.773438 222.308594 47.714844 C 217.25 42.652344 214.40625 35.789062 214.40625 28.632812 C 214.40625 21.476562 217.25 14.613281 222.308594 9.554688 C 227.371094 4.492188 234.234375 1.648438 241.390625 1.648438 Z M 241.390625 1.648438 " clip-rule="nonzero"/></clipPath><clipPath id="172d5c6f36"><path d="M 213.507812 0.75 L 269.007812 0.75 L 269.007812 56.25 L 213.507812 56.25 Z M 213.507812 0.75 " clip-rule="nonzero"/></clipPath><clipPath id="d8c01b84a1"><path d="M 213.507812 28.632812 C 213.507812 36.027344 216.445312 43.121094 221.671875 48.351562 C 226.902344 53.578125 233.996094 56.519531 241.390625 56.519531 C 248.785156 56.519531 255.878906 53.578125 261.105469 48.351562 C 266.335938 43.121094 269.273438 36.027344 269.273438 28.632812 C 269.273438 21.238281 266.335938 14.144531 261.105469 8.917969 C 255.878906 3.6875 248.785156 0.75 241.390625 0.75 C 233.996094 0.75 226.902344 3.6875 221.671875 8.917969 C 216.445312 14.144531 213.507812 21.238281 213.507812 28.632812 Z M 213.507812 28.632812 " clip-rule="nonzero"/></clipPath><clipPath id="aecf2a278d"><path d="M 213.507812 28.628906 C 213.507812 36.023438 216.445312 43.113281 221.671875 48.34375 C 226.898438 53.570312 233.992188 56.507812 241.386719 56.507812 C 248.777344 56.507812 255.871094 53.570312 261.097656 48.34375 C 266.328125 43.113281 269.265625 36.023438 269.265625 28.628906 C 269.265625 21.234375 266.328125 14.144531 261.097656 8.914062 C 255.871094 3.6875 248.777344 0.75 241.386719 0.75 C 233.992188 0.75 226.898438 3.6875 221.671875 8.914062 C 216.445312 14.144531 213.507812 21.234375 213.507812 28.628906 Z M 213.507812 28.628906 " clip-rule="nonzero"/></clipPath><clipPath id="e960083407"><path d="M 213 0.75 L 269 0.75 L 269 57 L 213 57 Z M 213 0.75 " clip-rule="nonzero"/></clipPath><clipPath id="35c5441a2a"><path d="M 205.566406 32 L 276.816406 32 L 276.816406 104.25 L 205.566406 104.25 Z M 205.566406 32 " clip-rule="nonzero"/></clipPath></defs><g clip-path="url(#e652bb0683)"><g clip-path="url(#3852d2d67c)"><g clip-path="url(#de2c696b97)"><path fill="#000000" d="M 241.253906 0.746094 C 225.9375 0.746094 213.503906 13.179688 213.503906 28.496094 C 213.503906 43.8125 225.9375 56.246094 241.253906 56.246094 C 256.570312 56.246094 269.003906 43.8125 269.003906 28.496094 C 269.003906 13.179688 256.570312 0.746094 241.253906 0.746094 Z M 241.253906 2.289062 C 255.738281 2.289062 267.460938 14.011719 267.460938 28.496094 C 267.460938 42.980469 255.738281 54.703125 241.253906 54.703125 C 226.769531 54.703125 215.042969 42.980469 215.042969 28.496094 C 215.042969 14.011719 226.769531 2.289062 241.253906 2.289062 Z M 241.253906 2.289062 " fill-opacity="1" fill-rule="nonzero"/></g></g></g><g clip-path="url(#172d5c6f36)"><g clip-path="url(#d8c01b84a1)"><g clip-path="url(#aecf2a278d)"><path stroke-linecap="butt" transform="matrix(0.75, 0, 0, 0.75, 213.506432, 0.749999)" fill="none" stroke-linejoin="miter" d="M 0.00184021 37.171877 C 0.00184021 47.031252 3.918507 56.484377 10.887257 63.458336 C 17.856007 70.427086 27.314341 74.343753 37.173716 74.343753 C 47.027883 74.343753 56.486216 70.427086 63.454966 63.458336 C 70.428925 56.484377 74.345591 47.031252 74.345591 37.171877 C 74.345591 27.312502 70.428925 17.859377 63.454966 10.885418 C 56.486216 3.916668 47.027883 0.0000014131 37.173716 0.0000014131 C 27.314341 0.0000014131 17.856007 3.916668 10.887257 10.885418 C 3.918507 17.859377 0.00184021 27.312502 0.00184021 37.171877 Z M 0.00184021 37.171877 " stroke="#000000" stroke-width="18" stroke-opacity="1" stroke-miterlimit="4"/></g></g></g><g clip-path="url(#e960083407)"><path fill="#000000" d="M 241.261719 56.113281 C 239.523438 56.113281 238.113281 54.703125 238.113281 52.964844 C 238.113281 51.226562 239.523438 49.816406 241.261719 49.816406 C 253.050781 49.816406 262.640625 40.226562 262.640625 28.441406 C 262.640625 16.652344 253.050781 7.0625 241.261719 7.0625 C 229.476562 7.0625 219.886719 16.652344 219.886719 28.4375 C 219.886719 30.179688 218.476562 31.589844 216.738281 31.589844 C 215 31.589844 213.589844 30.179688 213.589844 28.4375 C 213.589844 13.179688 226.003906 0.765625 241.265625 0.765625 C 256.523438 0.765625 268.9375 13.179688 268.9375 28.4375 C 268.9375 43.699219 256.523438 56.113281 241.261719 56.113281 Z M 241.261719 56.113281 " fill-opacity="1" fill-rule="nonzero"/></g><g clip-path="url(#35c5441a2a)"><path fill="#fbca6f" d="M 276.949219 68.414062 C 276.949219 69.582031 276.890625 70.75 276.777344 71.910156 C 276.660156 73.074219 276.488281 74.230469 276.261719 75.375 C 276.035156 76.523438 275.75 77.652344 275.410156 78.773438 C 275.070312 79.890625 274.679688 80.988281 274.230469 82.070312 C 273.785156 83.148438 273.285156 84.203125 272.734375 85.234375 C 272.183594 86.265625 271.582031 87.265625 270.933594 88.238281 C 270.285156 89.210938 269.589844 90.148438 268.847656 91.050781 C 268.105469 91.957031 267.324219 92.820312 266.496094 93.644531 C 265.667969 94.472656 264.804688 95.257812 263.902344 96 C 262.996094 96.738281 262.058594 97.433594 261.089844 98.085938 C 260.117188 98.734375 259.117188 99.332031 258.085938 99.882812 C 257.054688 100.433594 256 100.933594 254.917969 101.382812 C 253.839844 101.828125 252.742188 102.222656 251.621094 102.5625 C 250.503906 102.902344 249.371094 103.183594 248.226562 103.414062 C 247.078125 103.640625 245.925781 103.8125 244.761719 103.925781 C 243.597656 104.039062 242.433594 104.097656 241.261719 104.097656 C 240.09375 104.097656 238.929688 104.039062 237.765625 103.925781 C 236.601562 103.8125 235.449219 103.640625 234.300781 103.414062 C 233.15625 103.183594 232.023438 102.902344 230.90625 102.5625 C 229.785156 102.222656 228.6875 101.828125 227.609375 101.382812 C 226.527344 100.933594 225.472656 100.433594 224.441406 99.882812 C 223.410156 99.332031 222.410156 98.734375 221.4375 98.085938 C 220.464844 97.433594 219.527344 96.738281 218.625 96 C 217.722656 95.257812 216.855469 94.472656 216.03125 93.644531 C 215.203125 92.820312 214.421875 91.957031 213.679688 91.050781 C 212.9375 90.148438 212.242188 89.210938 211.59375 88.238281 C 210.945312 87.265625 210.34375 86.265625 209.792969 85.234375 C 209.242188 84.203125 208.742188 83.148438 208.296875 82.070312 C 207.847656 80.988281 207.453125 79.890625 207.117188 78.773438 C 206.777344 77.652344 206.492188 76.523438 206.265625 75.375 C 206.035156 74.230469 205.867188 73.074219 205.75 71.910156 C 205.636719 70.75 205.578125 69.582031 205.578125 68.414062 C 205.578125 67.246094 205.636719 66.078125 205.75 64.917969 C 205.867188 63.753906 206.035156 62.597656 206.265625 61.453125 C 206.492188 60.304688 206.777344 59.171875 207.117188 58.054688 C 207.453125 56.9375 207.847656 55.835938 208.296875 54.757812 C 208.742188 53.679688 209.242188 52.621094 209.792969 51.59375 C 210.34375 50.5625 210.945312 49.558594 211.59375 48.589844 C 212.242188 47.617188 212.9375 46.679688 213.679688 45.777344 C 214.421875 44.871094 215.203125 44.007812 216.03125 43.179688 C 216.855469 42.355469 217.722656 41.570312 218.625 40.828125 C 219.527344 40.089844 220.464844 39.394531 221.4375 38.742188 C 222.410156 38.09375 223.410156 37.492188 224.441406 36.941406 C 225.472656 36.390625 226.527344 35.894531 227.609375 35.445312 C 228.6875 35 229.785156 34.605469 230.90625 34.265625 C 232.023438 33.925781 233.15625 33.644531 234.300781 33.414062 C 235.449219 33.1875 236.601562 33.015625 237.765625 32.902344 C 238.929688 32.785156 240.09375 32.730469 241.261719 32.730469 C 242.433594 32.730469 243.597656 32.785156 244.761719 32.902344 C 245.925781 33.015625 247.078125 33.1875 248.226562 33.414062 C 249.371094 33.644531 250.503906 33.925781 251.621094 34.265625 C 252.742188 34.605469 253.839844 35 254.917969 35.445312 C 256 35.894531 257.054688 36.390625 258.085938 36.941406 C 259.117188 37.492188 260.117188 38.09375 261.089844 38.742188 C 262.058594 39.394531 262.996094 40.089844 263.902344 40.828125 C 264.804688 41.570312 265.667969 42.355469 266.496094 43.179688 C 267.324219 44.007812 268.105469 44.871094 268.847656 45.777344 C 269.589844 46.679688 270.285156 47.617188 270.933594 48.589844 C 271.582031 49.558594 272.183594 50.5625 272.734375 51.59375 C 273.285156 52.621094 273.785156 53.679688 274.230469 54.757812 C 274.679688 55.835938 275.070312 56.9375 275.410156 58.054688 C 275.75 59.171875 276.035156 60.304688 276.261719 61.453125 C 276.488281 62.597656 276.660156 63.753906 276.777344 64.917969 C 276.890625 66.078125 276.949219 67.246094 276.949219 68.414062 Z M 276.949219 68.414062 " fill-opacity="1" fill-rule="nonzero"/></g><path fill="#f8b858" d="M 268.027344 68.414062 C 268.027344 69.289062 267.984375 70.164062 267.898438 71.039062 C 267.8125 71.910156 267.683594 72.777344 267.511719 73.636719 C 267.339844 74.496094 267.128906 75.34375 266.875 76.183594 C 266.621094 77.023438 266.324219 77.847656 265.988281 78.65625 C 265.652344 79.464844 265.28125 80.257812 264.867188 81.03125 C 264.453125 81.804688 264.003906 82.554688 263.515625 83.28125 C 263.027344 84.011719 262.507812 84.714844 261.953125 85.390625 C 261.394531 86.070312 260.808594 86.71875 260.1875 87.339844 C 259.566406 87.957031 258.917969 88.546875 258.242188 89.101562 C 257.5625 89.65625 256.859375 90.179688 256.132812 90.667969 C 255.402344 91.152344 254.652344 91.605469 253.878906 92.015625 C 253.105469 92.429688 252.316406 92.804688 251.503906 93.140625 C 250.695312 93.476562 249.871094 93.769531 249.03125 94.023438 C 248.195312 94.277344 247.34375 94.492188 246.484375 94.664062 C 245.625 94.832031 244.757812 94.960938 243.886719 95.046875 C 243.015625 95.132812 242.140625 95.175781 241.265625 95.175781 C 240.386719 95.175781 239.511719 95.132812 238.640625 95.046875 C 237.769531 94.960938 236.902344 94.832031 236.042969 94.664062 C 235.183594 94.492188 234.332031 94.277344 233.496094 94.023438 C 232.65625 93.769531 231.832031 93.476562 231.023438 93.140625 C 230.210938 92.804688 229.421875 92.429688 228.648438 92.015625 C 227.875 91.605469 227.125 91.152344 226.394531 90.667969 C 225.667969 90.179688 224.964844 89.65625 224.285156 89.101562 C 223.609375 88.546875 222.960938 87.957031 222.339844 87.339844 C 221.71875 86.71875 221.132812 86.070312 220.574219 85.390625 C 220.019531 84.714844 219.5 84.011719 219.011719 83.28125 C 218.523438 82.554688 218.074219 81.804688 217.660156 81.03125 C 217.25 80.257812 216.875 79.464844 216.539062 78.65625 C 216.203125 77.847656 215.90625 77.023438 215.652344 76.183594 C 215.398438 75.34375 215.1875 74.496094 215.015625 73.636719 C 214.84375 72.777344 214.714844 71.910156 214.628906 71.039062 C 214.542969 70.164062 214.5 69.289062 214.5 68.414062 C 214.5 67.539062 214.542969 66.664062 214.628906 65.789062 C 214.714844 64.917969 214.84375 64.050781 215.015625 63.191406 C 215.1875 62.332031 215.398438 61.484375 215.652344 60.644531 C 215.90625 59.804688 216.203125 58.980469 216.539062 58.171875 C 216.875 57.363281 217.25 56.570312 217.660156 55.796875 C 218.074219 55.023438 218.523438 54.273438 219.011719 53.546875 C 219.5 52.816406 220.019531 52.113281 220.574219 51.4375 C 221.132812 50.757812 221.71875 50.109375 222.339844 49.488281 C 222.960938 48.871094 223.609375 48.28125 224.285156 47.726562 C 224.964844 47.171875 225.667969 46.648438 226.394531 46.160156 C 227.125 45.675781 227.875 45.226562 228.648438 44.8125 C 229.421875 44.398438 230.210938 44.023438 231.023438 43.6875 C 231.832031 43.351562 232.65625 43.058594 233.496094 42.804688 C 234.332031 42.550781 235.183594 42.335938 236.042969 42.164062 C 236.902344 41.996094 237.769531 41.867188 238.640625 41.78125 C 239.511719 41.695312 240.386719 41.652344 241.265625 41.652344 C 242.140625 41.652344 243.015625 41.695312 243.886719 41.78125 C 244.757812 41.867188 245.625 41.996094 246.484375 42.164062 C 247.34375 42.335938 248.195312 42.550781 249.03125 42.804688 C 249.871094 43.058594 250.695312 43.351562 251.503906 43.6875 C 252.316406 44.023438 253.105469 44.398438 253.878906 44.8125 C 254.652344 45.226562 255.402344 45.675781 256.132812 46.160156 C 256.859375 46.648438 257.5625 47.171875 258.242188 47.726562 C 258.917969 48.28125 259.566406 48.871094 260.1875 49.488281 C 260.808594 50.109375 261.394531 50.757812 261.953125 51.4375 C 262.507812 52.113281 263.027344 52.816406 263.515625 53.546875 C 264.003906 54.273438 264.453125 55.023438 264.867188 55.796875 C 265.28125 56.570312 265.652344 57.363281 265.988281 58.171875 C 266.324219 58.980469 266.621094 59.804688 266.875 60.644531 C 267.128906 61.484375 267.339844 62.332031 267.511719 63.191406 C 267.683594 64.050781 267.8125 64.917969 267.898438 65.789062 C 267.984375 66.664062 268.027344 67.539062 268.027344 68.414062 Z M 268.027344 68.414062 " fill-opacity="1" fill-rule="nonzero"/><path fill="#ffffff" d="M 248.800781 63.007812 C 248.800781 58.847656 245.425781 55.472656 241.261719 55.472656 C 237.101562 55.472656 233.726562 58.847656 233.726562 63.007812 C 233.726562 66.058594 235.546875 68.683594 238.15625 69.867188 C 238.058594 70.1875 237.992188 70.519531 237.992188 70.871094 L 237.992188 77.914062 C 237.992188 79.816406 239.53125 81.355469 241.425781 81.355469 C 243.328125 81.355469 244.867188 79.816406 244.867188 77.914062 L 244.867188 70.871094 C 244.867188 70.46875 244.785156 70.085938 244.65625 69.730469 C 247.113281 68.488281 248.800781 65.949219 248.800781 63.007812 Z M 248.800781 63.007812 " fill-opacity="1" fill-rule="nonzero"/><g fill="#000000" fill-opacity="1"><g transform="translate(284.333628, 87.152647)"><g><path d="M 42.78125 -12.734375 C 41.226562 -8.734375 38.695312 -5.53125 35.1875 -3.125 C 31.632812 -0.632812 27.738281 0.609375 23.5 0.609375 C 17.75 0.609375 12.832031 -1.507812 8.75 -5.75 C 4.75 -9.914062 2.75 -14.914062 2.75 -20.75 C 2.75 -23.644531 3.28125 -26.398438 4.34375 -29.015625 C 5.40625 -31.578125 6.875 -33.835938 8.75 -35.796875 C 12.832031 -40.046875 17.75 -42.171875 23.5 -42.171875 C 27.738281 -42.171875 31.613281 -40.96875 35.125 -38.5625 C 38.632812 -36.113281 41.164062 -32.910156 42.71875 -28.953125 L 38 -28.953125 C 35.757812 -33.066406 32.414062 -35.800781 27.96875 -37.15625 C 26.5 -37.5625 24.804688 -37.765625 22.890625 -37.765625 C 20.972656 -37.765625 19.015625 -37.316406 17.015625 -36.421875 C 15.015625 -35.484375 13.28125 -34.238281 11.8125 -32.6875 C 8.625 -29.375 7.03125 -25.394531 7.03125 -20.75 C 7.03125 -16.132812 8.625 -12.175781 11.8125 -8.875 C 15.03125 -5.488281 18.925781 -3.796875 23.5 -3.796875 C 26.601562 -3.796875 29.460938 -4.613281 32.078125 -6.25 C 34.640625 -7.875 36.632812 -10.035156 38.0625 -12.734375 Z M 42.78125 -12.734375 "/></g></g></g><g fill="#000000" fill-opacity="1"><g transform="translate(333.83559, 87.152647)"><g><path d="M 8.875 0 L 4.59375 0 L 4.59375 -41.625 L 8.875 -41.625 L 8.875 -22.09375 L 22.890625 -41.625 L 28.390625 -41.625 L 13.09375 -20.8125 L 28.390625 0 L 22.890625 0 L 8.875 -19.53125 Z M 8.875 0 "/></g></g></g><g fill="#000000" fill-opacity="1"><g transform="translate(367.735316, 87.152647)"><g><path d="M 29.3125 0 L 4.59375 0 L 4.59375 -41.625 L 29.3125 -41.625 L 29.3125 -37.640625 L 8.875 -37.640625 L 8.875 -22.828125 L 28.703125 -22.828125 L 28.703125 -18.796875 L 8.875 -18.796875 L 8.875 -3.984375 L 29.3125 -3.984375 Z M 29.3125 0 "/></g></g></g><g fill="#000000" fill-opacity="1"><g transform="translate(406.529869, 87.152647)"><g><path d="M 36.90625 -20.8125 C 36.90625 -17.789062 36.351562 -15.015625 35.25 -12.484375 C 34.113281 -9.910156 32.582031 -7.707031 30.65625 -5.875 C 28.738281 -4.039062 26.476562 -2.613281 23.875 -1.59375 C 21.257812 -0.53125 18.460938 0 15.484375 0 L 4.59375 0 L 4.59375 -41.625 L 15.484375 -41.625 C 18.460938 -41.625 21.257812 -41.113281 23.875 -40.09375 C 26.476562 -39.03125 28.738281 -37.582031 30.65625 -35.75 C 32.582031 -33.90625 34.113281 -31.71875 35.25 -29.1875 C 36.351562 -26.625 36.90625 -23.832031 36.90625 -20.8125 Z M 32.75 -20.8125 C 32.75 -25.539062 31.070312 -29.5 27.71875 -32.6875 C 24.457031 -35.78125 20.421875 -37.328125 15.609375 -37.328125 L 8.875 -37.328125 L 8.875 -4.28125 L 15.609375 -4.28125 C 20.421875 -4.28125 24.457031 -5.832031 27.71875 -8.9375 C 31.070312 -12.113281 32.75 -16.070312 32.75 -20.8125 Z M 32.75 -20.8125 "/></g></g></g><g fill="#000000" fill-opacity="1"><g transform="translate(2.647818, 87.152647)"><g><path d="M 36.90625 -20.8125 C 36.90625 -17.789062 36.351562 -15.015625 35.25 -12.484375 C 34.113281 -9.910156 32.582031 -7.707031 30.65625 -5.875 C 28.738281 -4.039062 26.476562 -2.613281 23.875 -1.59375 C 21.257812 -0.53125 18.460938 0 15.484375 0 L 4.59375 0 L 4.59375 -41.625 L 15.484375 -41.625 C 18.460938 -41.625 21.257812 -41.113281 23.875 -40.09375 C 26.476562 -39.03125 28.738281 -37.582031 30.65625 -35.75 C 32.582031 -33.90625 34.113281 -31.71875 35.25 -29.1875 C 36.351562 -26.625 36.90625 -23.832031 36.90625 -20.8125 Z M 32.75 -20.8125 C 32.75 -25.539062 31.070312 -29.5 27.71875 -32.6875 C 24.457031 -35.78125 20.421875 -37.328125 15.609375 -37.328125 L 8.875 -37.328125 L 8.875 -4.28125 L 15.609375 -4.28125 C 20.421875 -4.28125 24.457031 -5.832031 27.71875 -8.9375 C 31.070312 -12.113281 32.75 -16.070312 32.75 -20.8125 Z M 32.75 -20.8125 "/></g></g></g><g fill="#000000" fill-opacity="1"><g transform="translate(47.193739, 87.152647)"><g><path d="M 29.3125 0 L 4.59375 0 L 4.59375 -41.625 L 29.3125 -41.625 L 29.3125 -37.640625 L 8.875 -37.640625 L 8.875 -22.828125 L 28.703125 -22.828125 L 28.703125 -18.796875 L 8.875 -18.796875 L 8.875 -3.984375 L 29.3125 -3.984375 Z M 29.3125 0 "/></g></g></g><g fill="#000000" fill-opacity="1"><g transform="translate(85.988292, 87.152647)"><g><path d="M 11.328125 -15.296875 L 26.4375 -15.296875 L 18.90625 -34.453125 Z M 37.15625 0 L 32.5 0 L 28.03125 -11.328125 L 9.734375 -11.328125 L 5.265625 0 L 0.609375 0 L 18.90625 -44.5 Z M 37.15625 0 "/></g></g></g><g fill="#000000" fill-opacity="1"><g transform="translate(128.637495, 87.152647)"><g><path d="M 36.90625 -20.8125 C 36.90625 -17.789062 36.351562 -15.015625 35.25 -12.484375 C 34.113281 -9.910156 32.582031 -7.707031 30.65625 -5.875 C 28.738281 -4.039062 26.476562 -2.613281 23.875 -1.59375 C 21.257812 -0.53125 18.460938 0 15.484375 0 L 4.59375 0 L 4.59375 -41.625 L 15.484375 -41.625 C 18.460938 -41.625 21.257812 -41.113281 23.875 -40.09375 C 26.476562 -39.03125 28.738281 -37.582031 30.65625 -35.75 C 32.582031 -33.90625 34.113281 -31.71875 35.25 -29.1875 C 36.351562 -26.625 36.90625 -23.832031 36.90625 -20.8125 Z M 32.75 -20.8125 C 32.75 -25.539062 31.070312 -29.5 27.71875 -32.6875 C 24.457031 -35.78125 20.421875 -37.328125 15.609375 -37.328125 L 8.875 -37.328125 L 8.875 -4.28125 L 15.609375 -4.28125 C 20.421875 -4.28125 24.457031 -5.832031 27.71875 -8.9375 C 31.070312 -12.113281 32.75 -16.070312 32.75 -20.8125 Z M 32.75 -20.8125 "/></g></g></g><g fill="#000000" fill-opacity="1"><g transform="translate(173.183415, 87.152647)"><g><path d="M 8.875 -4.28125 L 23.75 -4.28125 L 23.75 0 L 4.59375 0 L 4.59375 -41.625 L 8.875 -41.625 Z M 8.875 -4.28125 "/></g></g></g></svg>