<svg xmlns="http://www.w3.org/2000/svg" xmlns:xlink="http://www.w3.org/1999/xlink" width="96" zoomAndPan="magnify" viewBox="0 0 72 110.88" height="138" preserveAspectRatio="xMidYMid meet" version="1.0"><defs><clipPath id="7f1b215293"><path d="M 8 0.398438 L 64 0.398438 L 64 56 L 8 56 Z M 8 0.398438 " clip-rule="nonzero"/></clipPath><clipPath id="297fda2280"><path d="M 0.558594 32 L 71.730469 32 L 71.730469 103.035156 L 0.558594 103.035156 Z M 0.558594 32 " clip-rule="nonzero"/></clipPath></defs><g clip-path="url(#7f1b215293)"><path fill="#000000" d="M 36 55.367188 C 34.273438 55.367188 32.875 53.96875 32.875 52.242188 C 32.875 50.515625 34.273438 49.117188 36 49.117188 C 47.703125 49.117188 57.222656 39.59375 57.222656 27.890625 C 57.222656 16.1875 47.703125 6.667969 36 6.667969 C 24.296875 6.667969 14.777344 16.1875 14.777344 27.890625 C 14.777344 29.617188 13.375 31.015625 11.648438 31.015625 C 9.921875 31.015625 8.523438 29.617188 8.523438 27.890625 C 8.523438 12.742188 20.847656 0.414062 36 0.414062 C 51.152344 0.414062 63.476562 12.742188 63.476562 27.890625 C 63.476562 43.042969 51.148438 55.367188 36 55.367188 Z M 36 55.367188 " fill-opacity="1" fill-rule="nonzero"/></g><g clip-path="url(#297fda2280)"><path fill="#fbca6f" d="M 71.429688 67.582031 C 71.429688 68.742188 71.375 69.898438 71.261719 71.054688 C 71.144531 72.210938 70.976562 73.355469 70.75 74.496094 C 70.523438 75.632812 70.242188 76.757812 69.90625 77.867188 C 69.566406 78.976562 69.175781 80.070312 68.734375 81.140625 C 68.289062 82.214844 67.792969 83.261719 67.246094 84.285156 C 66.699219 85.308594 66.105469 86.300781 65.460938 87.265625 C 64.816406 88.230469 64.125 89.164062 63.386719 90.058594 C 62.652344 90.957031 61.875 91.816406 61.054688 92.636719 C 60.234375 93.457031 59.375 94.234375 58.476562 94.972656 C 57.578125 95.707031 56.648438 96.398438 55.683594 97.042969 C 54.71875 97.6875 53.726562 98.28125 52.703125 98.828125 C 51.679688 99.378906 50.628906 99.871094 49.558594 100.316406 C 48.484375 100.761719 47.394531 101.152344 46.285156 101.488281 C 45.175781 101.824219 44.050781 102.105469 42.910156 102.332031 C 41.773438 102.558594 40.625 102.730469 39.472656 102.84375 C 38.316406 102.957031 37.160156 103.015625 36 103.015625 C 34.839844 103.015625 33.679688 102.957031 32.527344 102.84375 C 31.371094 102.730469 30.226562 102.558594 29.085938 102.332031 C 27.949219 102.105469 26.824219 101.824219 25.714844 101.488281 C 24.601562 101.152344 23.511719 100.761719 22.441406 100.316406 C 21.367188 99.871094 20.320312 99.378906 19.296875 98.828125 C 18.273438 98.28125 17.28125 97.6875 16.316406 97.042969 C 15.351562 96.398438 14.417969 95.707031 13.523438 94.972656 C 12.625 94.234375 11.765625 93.457031 10.945312 92.636719 C 10.125 91.816406 9.347656 90.957031 8.609375 90.058594 C 7.875 89.164062 7.183594 88.230469 6.539062 87.265625 C 5.894531 86.300781 5.296875 85.308594 4.75 84.285156 C 4.203125 83.261719 3.707031 82.214844 3.265625 81.140625 C 2.820312 80.070312 2.429688 78.976562 2.09375 77.867188 C 1.757812 76.757812 1.476562 75.632812 1.25 74.496094 C 1.023438 73.355469 0.851562 72.210938 0.738281 71.054688 C 0.625 69.898438 0.566406 68.742188 0.566406 67.582031 C 0.566406 66.421875 0.625 65.265625 0.738281 64.109375 C 0.851562 62.953125 1.023438 61.808594 1.25 60.667969 C 1.476562 59.53125 1.757812 58.40625 2.09375 57.296875 C 2.429688 56.1875 2.820312 55.09375 3.265625 54.023438 C 3.707031 52.949219 4.203125 51.902344 4.75 50.878906 C 5.296875 49.855469 5.894531 48.863281 6.539062 47.898438 C 7.183594 46.933594 7.875 46 8.609375 45.105469 C 9.347656 44.207031 10.125 43.347656 10.945312 42.527344 C 11.765625 41.707031 12.625 40.929688 13.523438 40.191406 C 14.417969 39.457031 15.351562 38.765625 16.316406 38.121094 C 17.28125 37.476562 18.273438 36.882812 19.296875 36.335938 C 20.320312 35.789062 21.367188 35.292969 22.441406 34.847656 C 23.511719 34.402344 24.601562 34.011719 25.714844 33.675781 C 26.824219 33.339844 27.949219 33.058594 29.085938 32.832031 C 30.226562 32.605469 31.371094 32.433594 32.527344 32.320312 C 33.679688 32.207031 34.839844 32.152344 36 32.152344 C 37.160156 32.152344 38.316406 32.207031 39.472656 32.320312 C 40.625 32.433594 41.773438 32.605469 42.910156 32.832031 C 44.050781 33.058594 45.175781 33.339844 46.285156 33.675781 C 47.394531 34.011719 48.484375 34.402344 49.558594 34.847656 C 50.628906 35.292969 51.679688 35.789062 52.703125 36.335938 C 53.726562 36.882812 54.71875 37.476562 55.683594 38.121094 C 56.648438 38.765625 57.578125 39.457031 58.476562 40.191406 C 59.375 40.929688 60.234375 41.707031 61.054688 42.527344 C 61.875 43.347656 62.652344 44.207031 63.386719 45.105469 C 64.125 46 64.816406 46.933594 65.460938 47.898438 C 66.105469 48.863281 66.699219 49.855469 67.246094 50.878906 C 67.792969 51.902344 68.289062 52.949219 68.734375 54.023438 C 69.175781 55.09375 69.566406 56.1875 69.90625 57.296875 C 70.242188 58.40625 70.523438 59.53125 70.75 60.667969 C 70.976562 61.808594 71.144531 62.953125 71.261719 64.109375 C 71.375 65.265625 71.429688 66.421875 71.429688 67.582031 Z M 71.429688 67.582031 " fill-opacity="1" fill-rule="nonzero"/></g><path fill="#f8b858" d="M 62.574219 67.582031 C 62.574219 68.453125 62.53125 69.320312 62.445312 70.1875 C 62.359375 71.054688 62.230469 71.914062 62.0625 72.765625 C 61.890625 73.621094 61.679688 74.464844 61.429688 75.296875 C 61.175781 76.128906 60.882812 76.949219 60.550781 77.75 C 60.214844 78.554688 59.84375 79.339844 59.433594 80.109375 C 59.023438 80.875 58.578125 81.621094 58.09375 82.347656 C 57.609375 83.070312 57.09375 83.769531 56.539062 84.441406 C 55.988281 85.113281 55.40625 85.757812 54.789062 86.371094 C 54.175781 86.988281 53.53125 87.570312 52.855469 88.125 C 52.183594 88.675781 51.488281 89.195312 50.761719 89.675781 C 50.039062 90.160156 49.292969 90.609375 48.527344 91.019531 C 47.757812 91.429688 46.972656 91.800781 46.167969 92.132812 C 45.363281 92.464844 44.546875 92.757812 43.714844 93.011719 C 42.878906 93.265625 42.039062 93.476562 41.183594 93.644531 C 40.332031 93.816406 39.46875 93.941406 38.605469 94.027344 C 37.738281 94.113281 36.871094 94.15625 36 94.15625 C 35.128906 94.15625 34.261719 94.113281 33.394531 94.027344 C 32.527344 93.941406 31.667969 93.816406 30.816406 93.644531 C 29.960938 93.476562 29.117188 93.265625 28.285156 93.011719 C 27.453125 92.757812 26.632812 92.464844 25.832031 92.132812 C 25.027344 91.800781 24.242188 91.429688 23.472656 91.019531 C 22.707031 90.609375 21.960938 90.160156 21.238281 89.675781 C 20.511719 89.195312 19.816406 88.675781 19.140625 88.125 C 18.46875 87.570312 17.824219 86.988281 17.210938 86.371094 C 16.59375 85.757812 16.011719 85.113281 15.457031 84.441406 C 14.90625 83.769531 14.386719 83.070312 13.90625 82.347656 C 13.421875 81.621094 12.972656 80.875 12.5625 80.109375 C 12.152344 79.339844 11.78125 78.554688 11.449219 77.75 C 11.117188 76.949219 10.824219 76.128906 10.570312 75.296875 C 10.316406 74.464844 10.105469 73.621094 9.9375 72.765625 C 9.765625 71.914062 9.640625 71.054688 9.554688 70.1875 C 9.46875 69.320312 9.425781 68.453125 9.425781 67.582031 C 9.425781 66.710938 9.46875 65.84375 9.554688 64.976562 C 9.640625 64.113281 9.765625 63.253906 9.9375 62.398438 C 10.105469 61.542969 10.316406 60.703125 10.570312 59.867188 C 10.824219 59.035156 11.117188 58.21875 11.449219 57.414062 C 11.78125 56.609375 12.152344 55.824219 12.5625 55.054688 C 12.972656 54.289062 13.421875 53.542969 13.90625 52.820312 C 14.386719 52.097656 14.90625 51.398438 15.457031 50.726562 C 16.011719 50.050781 16.59375 49.40625 17.210938 48.792969 C 17.824219 48.175781 18.46875 47.59375 19.140625 47.042969 C 19.816406 46.488281 20.511719 45.972656 21.238281 45.488281 C 21.960938 45.003906 22.707031 44.558594 23.472656 44.148438 C 24.242188 43.738281 25.027344 43.367188 25.832031 43.03125 C 26.632812 42.699219 27.453125 42.40625 28.285156 42.152344 C 29.117188 41.902344 29.960938 41.691406 30.816406 41.519531 C 31.667969 41.351562 32.527344 41.222656 33.394531 41.136719 C 34.261719 41.050781 35.128906 41.007812 36 41.007812 C 36.871094 41.007812 37.738281 41.050781 38.605469 41.136719 C 39.46875 41.222656 40.332031 41.351562 41.183594 41.519531 C 42.039062 41.691406 42.878906 41.902344 43.714844 42.152344 C 44.546875 42.40625 45.363281 42.699219 46.167969 43.03125 C 46.972656 43.367188 47.757812 43.738281 48.527344 44.148438 C 49.292969 44.558594 50.039062 45.003906 50.761719 45.488281 C 51.488281 45.972656 52.183594 46.488281 52.855469 47.042969 C 53.53125 47.59375 54.175781 48.175781 54.789062 48.792969 C 55.40625 49.40625 55.988281 50.050781 56.539062 50.726562 C 57.09375 51.398438 57.609375 52.097656 58.09375 52.820312 C 58.578125 53.542969 59.023438 54.289062 59.433594 55.054688 C 59.84375 55.824219 60.214844 56.609375 60.550781 57.414062 C 60.882812 58.21875 61.175781 59.035156 61.429688 59.867188 C 61.679688 60.703125 61.890625 61.542969 62.0625 62.398438 C 62.230469 63.253906 62.359375 64.113281 62.445312 64.976562 C 62.53125 65.84375 62.574219 66.710938 62.574219 67.582031 Z M 62.574219 67.582031 " fill-opacity="1" fill-rule="nonzero"/><path fill="#ffffff" d="M 43.480469 62.214844 C 43.480469 58.082031 40.132812 54.730469 36 54.730469 C 31.867188 54.730469 28.515625 58.082031 28.515625 62.214844 C 28.515625 65.246094 30.324219 67.847656 32.914062 69.023438 C 32.816406 69.34375 32.75 69.671875 32.75 70.023438 L 32.75 77.015625 C 32.75 78.902344 34.277344 80.433594 36.160156 80.433594 C 38.050781 80.433594 39.578125 78.902344 39.578125 77.015625 L 39.578125 70.023438 C 39.578125 69.621094 39.496094 69.246094 39.371094 68.886719 C 41.808594 67.65625 43.480469 65.132812 43.480469 62.214844 Z M 43.480469 62.214844 " fill-opacity="1" fill-rule="nonzero"/></svg>